<svg width="189" height="59" viewBox="0 0 189 59" fill="none" xmlns="http://www.w3.org/2000/svg">
<path opacity="0.9" d="M79.816 5.008C81.016 5.008 82.056 5.184 82.936 5.536C83.832 5.872 84.656 6.392 85.408 7.096L83.728 9.04C83.136 8.56 82.544 8.208 81.952 7.984C81.36 7.76 80.728 7.648 80.056 7.648C79.32 7.648 78.728 7.808 78.28 8.128C77.848 8.432 77.632 8.872 77.632 9.448C77.632 9.848 77.72 10.176 77.896 10.432C78.088 10.688 78.416 10.928 78.88 11.152C79.344 11.376 80.04 11.632 80.968 11.92C82.616 12.448 83.848 13.104 84.664 13.888C85.48 14.656 85.888 15.76 85.888 17.2C85.888 18.224 85.632 19.128 85.12 19.912C84.608 20.68 83.864 21.288 82.888 21.736C81.912 22.168 80.768 22.384 79.456 22.384C78.144 22.384 76.976 22.176 75.952 21.76C74.928 21.344 74.048 20.776 73.312 20.056L75.112 18.064C75.752 18.608 76.416 19.024 77.104 19.312C77.792 19.584 78.544 19.72 79.36 19.72C80.224 19.72 80.912 19.52 81.424 19.12C81.952 18.72 82.216 18.16 82.216 17.44C82.216 16.992 82.12 16.624 81.928 16.336C81.752 16.032 81.44 15.76 80.992 15.52C80.544 15.28 79.896 15.032 79.048 14.776C77.24 14.216 75.944 13.544 75.16 12.76C74.392 11.976 74.008 10.952 74.008 9.688C74.008 8.76 74.256 7.944 74.752 7.24C75.248 6.52 75.936 5.968 76.816 5.584C77.696 5.2 78.696 5.008 79.816 5.008ZM95.1143 8.896C96.7143 8.896 97.8983 9.488 98.6663 10.672C99.4503 11.84 99.8423 13.488 99.8423 15.616C99.8423 16.912 99.6423 18.072 99.2423 19.096C98.8423 20.12 98.2583 20.928 97.4903 21.52C96.7383 22.096 95.8423 22.384 94.8023 22.384C93.5063 22.384 92.4583 21.928 91.6583 21.016V26.896L88.2503 27.28V9.28H91.2503L91.4183 10.768C91.8983 10.144 92.4583 9.68 93.0983 9.376C93.7543 9.056 94.4263 8.896 95.1143 8.896ZM93.7943 19.84C95.4583 19.84 96.2903 18.44 96.2903 15.64C96.2903 14.104 96.1063 13.016 95.7383 12.376C95.3703 11.736 94.8103 11.416 94.0583 11.416C93.5783 11.416 93.1303 11.568 92.7143 11.872C92.3143 12.16 91.9623 12.552 91.6583 13.048V18.592C92.2023 19.424 92.9143 19.84 93.7943 19.84ZM107.899 8.896C109.803 8.896 111.291 9.496 112.363 10.696C113.435 11.88 113.971 13.528 113.971 15.64C113.971 16.984 113.723 18.168 113.227 19.192C112.747 20.2 112.043 20.984 111.115 21.544C110.203 22.104 109.123 22.384 107.875 22.384C105.971 22.384 104.475 21.792 103.387 20.608C102.315 19.408 101.779 17.752 101.779 15.64C101.779 14.296 102.019 13.12 102.499 12.112C102.995 11.088 103.699 10.296 104.611 9.736C105.539 9.176 106.635 8.896 107.899 8.896ZM107.899 11.44C107.035 11.44 106.387 11.784 105.955 12.472C105.539 13.144 105.331 14.2 105.331 15.64C105.331 17.08 105.539 18.144 105.955 18.832C106.387 19.504 107.027 19.84 107.875 19.84C108.723 19.84 109.355 19.504 109.771 18.832C110.203 18.144 110.419 17.08 110.419 15.64C110.419 14.2 110.211 13.144 109.795 12.472C109.379 11.784 108.747 11.44 107.899 11.44ZM123.139 8.92C123.523 8.92 123.947 8.984 124.411 9.112L123.835 12.4C123.387 12.288 123.011 12.232 122.707 12.232C121.955 12.232 121.371 12.496 120.955 13.024C120.539 13.552 120.211 14.352 119.971 15.424V22H116.563V9.28H119.515L119.827 11.752C120.131 10.856 120.571 10.16 121.147 9.664C121.739 9.168 122.403 8.92 123.139 8.92ZM133.71 21.4C133.246 21.72 132.718 21.96 132.126 22.12C131.55 22.296 130.974 22.384 130.398 22.384C129.086 22.368 128.094 21.992 127.422 21.256C126.75 20.52 126.414 19.44 126.414 18.016V11.68H124.518V9.28H126.414V6.496L129.822 6.088V9.28H132.75L132.414 11.68H129.822V17.944C129.822 18.552 129.926 18.992 130.134 19.264C130.342 19.536 130.662 19.672 131.094 19.672C131.526 19.672 132.006 19.528 132.534 19.24L133.71 21.4ZM90.856 50H87.4L87.04 43.256C86.928 41.24 86.872 39.528 86.872 38.12C86.872 37.368 86.88 36.824 86.896 36.488L84.088 48.224H80.752L77.752 36.464C77.816 37.44 77.848 38.536 77.848 39.752C77.848 41.048 77.816 42.24 77.752 43.328L77.392 50H73.96L75.256 33.392H79.744L82.48 44.84L85.048 33.392H89.584L90.856 50ZM103.22 46.472C103.22 46.968 103.292 47.336 103.436 47.576C103.58 47.8 103.82 47.968 104.156 48.08L103.436 50.336C102.684 50.272 102.068 50.096 101.588 49.808C101.124 49.52 100.764 49.072 100.508 48.464C99.6763 49.744 98.4043 50.384 96.6923 50.384C95.4283 50.384 94.4203 50.024 93.6683 49.304C92.9323 48.568 92.5643 47.616 92.5643 46.448C92.5643 45.056 93.0683 43.992 94.0763 43.256C95.0843 42.52 96.5323 42.152 98.4203 42.152H99.8843V41.528C99.8843 40.744 99.7083 40.2 99.3563 39.896C99.0043 39.592 98.4203 39.44 97.6043 39.44C96.7083 39.44 95.5883 39.664 94.2443 40.112L93.4763 37.832C95.0603 37.208 96.6283 36.896 98.1803 36.896C99.9083 36.896 101.18 37.272 101.996 38.024C102.812 38.76 103.22 39.864 103.22 41.336V46.472ZM97.6283 47.936C98.5883 47.936 99.3403 47.464 99.8843 46.52V44.096H98.7563C96.9163 44.096 95.9963 44.784 95.9963 46.16C95.9963 46.72 96.1323 47.16 96.4043 47.48C96.6923 47.784 97.1003 47.936 97.6283 47.936ZM113.201 36.92C113.585 36.92 114.009 36.984 114.473 37.112L113.897 40.4C113.449 40.288 113.073 40.232 112.769 40.232C112.017 40.232 111.433 40.496 111.017 41.024C110.601 41.552 110.273 42.352 110.033 43.424V50H106.625V37.28H109.577L109.889 39.752C110.193 38.856 110.633 38.16 111.209 37.664C111.801 37.168 112.465 36.92 113.201 36.92ZM119.572 31.832V50H116.164V32.216L119.572 31.832ZM127.3 37.28L123.244 42.872L127.66 50H123.796L119.692 43.04L123.772 37.28H127.3ZM139.643 43.352C139.643 43.512 139.619 43.952 139.571 44.672H131.627C131.739 45.824 132.051 46.64 132.563 47.12C133.075 47.6 133.771 47.84 134.651 47.84C135.195 47.84 135.707 47.752 136.187 47.576C136.667 47.4 137.187 47.12 137.747 46.736L139.163 48.656C137.739 49.808 136.131 50.384 134.339 50.384C132.339 50.384 130.803 49.784 129.731 48.584C128.659 47.384 128.123 45.76 128.123 43.712C128.123 42.416 128.347 41.256 128.795 40.232C129.259 39.192 129.923 38.376 130.787 37.784C131.667 37.192 132.707 36.896 133.907 36.896C135.715 36.896 137.123 37.464 138.131 38.6C139.139 39.736 139.643 41.32 139.643 43.352ZM136.259 42.392C136.259 40.28 135.499 39.224 133.979 39.224C133.275 39.224 132.723 39.488 132.323 40.016C131.939 40.528 131.707 41.368 131.627 42.536H136.259V42.392ZM149.718 49.4C149.254 49.72 148.726 49.96 148.134 50.12C147.558 50.296 146.982 50.384 146.406 50.384C145.094 50.368 144.102 49.992 143.43 49.256C142.758 48.52 142.422 47.44 142.422 46.016V39.68H140.526V37.28H142.422V34.496L145.83 34.088V37.28H148.758L148.422 39.68H145.83V45.944C145.83 46.552 145.934 46.992 146.142 47.264C146.35 47.536 146.67 47.672 147.102 47.672C147.534 47.672 148.014 47.528 148.542 47.24L149.718 49.4Z" fill="white"/>
<path d="M62 5H0L20.3911 40.5477L31.1378 22.6382H20.3911L16.8089 15.3116H45.4667L25.9022 49.5025L31.1378 59L62 5Z" fill="#FBD02A"/>
</svg>
