<svg width="58" height="52" viewBox="0 0 58 52" fill="none" xmlns="http://www.w3.org/2000/svg">
<rect x="32" width="26" height="26" rx="5" fill="#FBD029"/>
<path d="M2 29V39C2 39.5304 2.21071 40.0391 2.58579 40.4142C2.96086 40.7893 3.46957 41 4 41H6C6 42.5913 6.63214 44.1174 7.75736 45.2426C8.88258 46.3679 10.4087 47 12 47C13.5913 47 15.1174 46.3679 16.2426 45.2426C17.3679 44.1174 18 42.5913 18 41H30C30 42.5913 30.6321 44.1174 31.7574 45.2426C32.8826 46.3679 34.4087 47 36 47C37.5913 47 39.1174 46.3679 40.2426 45.2426C41.3679 44.1174 42 42.5913 42 41H44C44.5304 41 45.0391 40.7893 45.4142 40.4142C45.7893 40.0391 46 39.5304 46 39V15C46 13.4087 45.3679 11.8826 44.2426 10.7574C43.1174 9.63214 41.5913 9 40 9H22C20.4087 9 18.8826 9.63214 17.7574 10.7574C16.6321 11.8826 16 13.4087 16 15V19H12C11.0685 19 10.1499 19.2169 9.31672 19.6334C8.48359 20.05 7.75888 20.6548 7.2 21.4L2.4 27.8C2.3415 27.8869 2.29445 27.981 2.26 28.08L2.14 28.3C2.05173 28.523 2.00431 28.7602 2 29ZM34 41C34 40.6044 34.1173 40.2178 34.3371 39.8889C34.5568 39.56 34.8692 39.3036 35.2346 39.1522C35.6001 39.0009 36.0022 38.9613 36.3902 39.0384C36.7781 39.1156 37.1345 39.3061 37.4142 39.5858C37.6939 39.8655 37.8844 40.2219 37.9616 40.6098C38.0387 40.9978 37.9991 41.3999 37.8478 41.7654C37.6964 42.1308 37.44 42.4432 37.1111 42.6629C36.7822 42.8827 36.3956 43 36 43C35.4696 43 34.9609 42.7893 34.5858 42.4142C34.2107 42.0391 34 41.5304 34 41ZM20 15C20 14.4696 20.2107 13.9609 20.5858 13.5858C20.9609 13.2107 21.4696 13 22 13H40C40.5304 13 41.0391 13.2107 41.4142 13.5858C41.7893 13.9609 42 14.4696 42 15V37H40.44C39.8776 36.3813 39.1922 35.8869 38.4276 35.5487C37.663 35.2104 36.8361 35.0356 36 35.0356C35.1639 35.0356 34.337 35.2104 33.5724 35.5487C32.8078 35.8869 32.1224 36.3813 31.56 37H20V15ZM16 27H8L10.4 23.8C10.5863 23.5516 10.8279 23.35 11.1056 23.2111C11.3833 23.0723 11.6895 23 12 23H16V27ZM10 41C10 40.6044 10.1173 40.2178 10.3371 39.8889C10.5568 39.56 10.8692 39.3036 11.2346 39.1522C11.6001 39.0009 12.0022 38.9613 12.3902 39.0384C12.7781 39.1156 13.1345 39.3061 13.4142 39.5858C13.6939 39.8655 13.8844 40.2219 13.9616 40.6098C14.0387 40.9978 13.9991 41.3999 13.8478 41.7654C13.6964 42.1308 13.44 42.4432 13.1111 42.6629C12.7822 42.8827 12.3956 43 12 43C11.4696 43 10.9609 42.7893 10.5858 42.4142C10.2107 42.0391 10 41.5304 10 41ZM6 31H16V36.56C14.8197 35.5051 13.2703 34.9594 11.6894 35.0418C10.1085 35.1243 8.62425 35.8281 7.56 37H6V31Z" fill="#1F1D14"/>
</svg>
