<svg width="58" height="52" viewBox="0 0 58 52" fill="none" xmlns="http://www.w3.org/2000/svg">
<rect x="32" width="26" height="26" rx="5" fill="#FBD029"/>
<path d="M39.26 11.2999C39.0277 11.1119 38.7561 10.9784 38.4654 10.9092C38.1747 10.84 37.8721 10.8368 37.58 10.8999C35.4429 11.3478 33.2367 11.3535 31.0973 10.9167C28.9579 10.4798 26.9305 9.60971 25.14 8.35988C24.8052 8.12763 24.4075 8.00317 24 8.00317C23.5925 8.00317 23.1948 8.12763 22.86 8.35988C21.0695 9.60971 19.0422 10.4798 16.9027 10.9167C14.7633 11.3535 12.5571 11.3478 10.42 10.8999C10.1279 10.8368 9.82534 10.84 9.53461 10.9092C9.24388 10.9784 8.97236 11.1119 8.74001 11.2999C8.50797 11.4881 8.32105 11.726 8.193 11.9959C8.06494 12.2659 7.999 12.5611 8.00001 12.8599V27.7599C7.99823 30.6274 8.68156 33.4538 9.99308 36.0038C11.3046 38.5538 13.2064 40.7535 15.54 42.4199L22.84 47.6199C23.1787 47.8611 23.5842 47.9907 24 47.9907C24.4158 47.9907 24.8213 47.8611 25.16 47.6199L32.46 42.4199C34.7937 40.7535 36.6954 38.5538 38.0069 36.0038C39.3185 33.4538 40.0018 30.6274 40 27.7599V12.8599C40.001 12.5611 39.9351 12.2659 39.807 11.9959C39.679 11.726 39.4921 11.4881 39.26 11.2999ZM36 27.7599C36.0015 29.9894 35.4706 32.187 34.4513 34.1699C33.432 36.1528 31.9539 37.8636 30.14 39.1599L24 43.5399L17.86 39.1599C16.0461 37.8636 14.568 36.1528 13.5487 34.1699C12.5294 32.187 11.9985 29.9894 12 27.7599V15.1599C16.1929 15.5188 20.3921 14.5459 24 12.3799C27.6079 14.5459 31.8072 15.5188 36 15.1599V27.7599ZM27.08 23.1799L21.7 28.5799L19.92 26.7799C19.5434 26.4033 19.0326 26.1917 18.5 26.1917C17.9674 26.1917 17.4566 26.4033 17.08 26.7799C16.7034 27.1565 16.4918 27.6673 16.4918 28.1999C16.4918 28.7325 16.7034 29.2433 17.08 29.6199L20.28 32.8199C20.4659 33.0073 20.6871 33.1561 20.9309 33.2577C21.1746 33.3592 21.436 33.4115 21.7 33.4115C21.964 33.4115 22.2254 33.3592 22.4692 33.2577C22.7129 33.1561 22.9341 33.0073 23.12 32.8199L30 25.9999C30.3766 25.6233 30.5882 25.1125 30.5882 24.5799C30.5882 24.0473 30.3766 23.5365 30 23.1599C29.6234 22.7833 29.1126 22.5717 28.58 22.5717C28.0474 22.5717 27.5366 22.7833 27.16 23.1599L27.08 23.1799Z" fill="#1F1D14"/>
</svg>
