<svg width="58" height="52" viewBox="0 0 58 52" fill="none" xmlns="http://www.w3.org/2000/svg">
<rect x="32" width="26" height="26" rx="5" fill="#FBD029"/>
<path d="M15.5165 25.5156C16.7032 25.5156 17.8633 25.1637 18.85 24.5044C19.8367 23.8451 20.6057 22.908 21.0598 21.8117C21.5139 20.7153 21.6328 19.5089 21.4013 18.345C21.1697 17.1811 20.5983 16.112 19.7592 15.2729C18.9201 14.4338 17.851 13.8624 16.6871 13.6309C15.5232 13.3993 14.3168 13.5182 13.2204 13.9723C12.1241 14.4264 11.187 15.1955 10.5277 16.1821C9.86844 17.1688 9.51655 18.3289 9.51655 19.5156C9.51828 21.1063 10.151 22.6314 11.2758 23.7563C12.4007 24.8811 13.9258 25.5138 15.5165 25.5156ZM15.5165 17.5156C15.9121 17.5156 16.2988 17.6329 16.6277 17.8526C16.9566 18.0724 17.2129 18.3847 17.3643 18.7502C17.5157 19.1157 17.5553 19.5178 17.4781 19.9057C17.4009 20.2937 17.2105 20.6501 16.9308 20.9298C16.6511 21.2095 16.2947 21.4 15.9067 21.4771C15.5188 21.5543 15.1166 21.5147 14.7512 21.3633C14.3857 21.212 14.0734 20.9556 13.8536 20.6267C13.6338 20.2978 13.5165 19.9111 13.5165 19.5156C13.5169 18.9852 13.7277 18.4767 14.1027 18.1017C14.4777 17.7267 14.9862 17.5159 15.5165 17.5156ZM32.4853 30.4843C31.2986 30.4843 30.1386 30.8362 29.1519 31.4955C28.1652 32.1548 27.3962 33.0919 26.942 34.1882C26.4879 35.2846 26.3691 36.491 26.6006 37.6549C26.8321 38.8188 27.4035 39.8879 28.2427 40.727C29.0818 41.5661 30.1509 42.1375 31.3148 42.369C32.4786 42.6005 33.685 42.4817 34.7814 42.0276C35.8778 41.5735 36.8148 40.8044 37.4741 39.8177C38.1334 38.8311 38.4853 37.671 38.4853 36.4843C38.4836 34.8936 37.8509 33.3684 36.726 32.2436C35.6012 31.1188 34.0761 30.4861 32.4853 30.4843ZM32.4853 38.4843C32.0897 38.4843 31.7031 38.367 31.3742 38.1473C31.0453 37.9275 30.7889 37.6151 30.6375 37.2497C30.4862 36.8842 30.4466 36.4821 30.5237 36.0941C30.6009 35.7062 30.7914 35.3498 31.0711 35.0701C31.3508 34.7904 31.7072 34.5999 32.0951 34.5228C32.4831 34.4456 32.8852 34.4852 33.2507 34.6366C33.6161 34.7879 33.9285 35.0443 34.1482 35.3732C34.368 35.7021 34.4853 36.0888 34.4853 36.4843C34.4849 37.0147 34.2741 37.5232 33.8991 37.8981C33.5241 38.2731 33.0156 38.484 32.4853 38.4843ZM39.4149 12.5859C39.2293 12.4002 39.0088 12.2528 38.7662 12.1523C38.5236 12.0517 38.2635 12 38.0009 12C37.7382 12 37.4782 12.0517 37.2355 12.1523C36.9929 12.2528 36.7725 12.4002 36.5868 12.5859L8.58681 40.5859C8.39919 40.7712 8.25008 40.9918 8.14803 41.2349C8.04598 41.478 7.99302 41.7389 7.9922 42.0026C7.99137 42.2663 8.0427 42.5275 8.14323 42.7713C8.24375 43.015 8.39149 43.2365 8.57794 43.4229C8.76439 43.6094 8.98587 43.7571 9.22963 43.8576C9.47339 43.9581 9.73463 44.0094 9.9983 44.0086C10.262 44.0078 10.5229 43.9548 10.766 43.8528C11.0091 43.7507 11.2297 43.6016 11.4149 43.4139L39.4149 15.4139C39.6007 15.2283 39.748 15.0079 39.8485 14.7652C39.9491 14.5226 40.0008 14.2626 40.0008 13.9999C40.0008 13.7373 39.9491 13.4773 39.8485 13.2347C39.748 12.992 39.6007 12.7716 39.4149 12.5859Z" fill="#1F1D14"/>
</svg>
