<svg width="53" height="52" viewBox="0 0 53 52" fill="none" xmlns="http://www.w3.org/2000/svg">
<rect x="27" width="26" height="26" rx="5" fill="#FBD029"/>
<path d="M23 44H11C10.4696 44 9.96086 43.7893 9.58579 43.4142C9.21071 43.0391 9 42.5304 9 42V14C9 13.4696 9.21071 12.9609 9.58579 12.5858C9.96086 12.2107 10.4696 12 11 12H21V18C21 19.5913 21.6321 21.1174 22.7574 22.2426C23.8826 23.3679 25.4087 24 27 24H33V34C33 34.5304 33.2107 35.0391 33.5858 35.4142C33.9609 35.7893 34.4696 36 35 36C35.5304 36 36.0391 35.7893 36.4142 35.4142C36.7893 35.0391 37 34.5304 37 34V22C37 22 37 22 37 21.88C36.9792 21.6963 36.9389 21.5153 36.88 21.34V21.16C36.7838 20.9544 36.6556 20.7653 36.5 20.6L24.5 8.6C24.3347 8.44443 24.1456 8.31616 23.94 8.22C23.8738 8.20842 23.8062 8.20842 23.74 8.22C23.5455 8.11601 23.3365 8.04184 23.12 8H11C9.4087 8 7.88258 8.63214 6.75736 9.75736C5.63214 10.8826 5 12.4087 5 14V42C5 43.5913 5.63214 45.1174 6.75736 46.2426C7.88258 47.3679 9.4087 48 11 48H23C23.5304 48 24.0391 47.7893 24.4142 47.4142C24.7893 47.0391 25 46.5304 25 46C25 45.4696 24.7893 44.9609 24.4142 44.5858C24.0391 44.2107 23.5304 44 23 44ZM25 14.82L30.18 20H27C26.4696 20 25.9609 19.7893 25.5858 19.4142C25.2107 19.0391 25 18.5304 25 18V14.82ZM15 32H27C27.5304 32 28.0391 31.7893 28.4142 31.4142C28.7893 31.0391 29 30.5304 29 30C29 29.4696 28.7893 28.9609 28.4142 28.5858C28.0391 28.2107 27.5304 28 27 28H15C14.4696 28 13.9609 28.2107 13.5858 28.5858C13.2107 28.9609 13 29.4696 13 30C13 30.5304 13.2107 31.0391 13.5858 31.4142C13.9609 31.7893 14.4696 32 15 32ZM23 36H15C14.4696 36 13.9609 36.2107 13.5858 36.5858C13.2107 36.9609 13 37.4696 13 38C13 38.5304 13.2107 39.0391 13.5858 39.4142C13.9609 39.7893 14.4696 40 15 40H23C23.5304 40 24.0391 39.7893 24.4142 39.4142C24.7893 39.0391 25 38.5304 25 38C25 37.4696 24.7893 36.9609 24.4142 36.5858C24.0391 36.2107 23.5304 36 23 36ZM15 24H17C17.5304 24 18.0391 23.7893 18.4142 23.4142C18.7893 23.0391 19 22.5304 19 22C19 21.4696 18.7893 20.9609 18.4142 20.5858C18.0391 20.2107 17.5304 20 17 20H15C14.4696 20 13.9609 20.2107 13.5858 20.5858C13.2107 20.9609 13 21.4696 13 22C13 22.5304 13.2107 23.0391 13.5858 23.4142C13.9609 23.7893 14.4696 24 15 24ZM42.42 36.58C42.2341 36.3925 42.0129 36.2438 41.7692 36.1422C41.5254 36.0407 41.264 35.9884 41 35.9884C40.736 35.9884 40.4746 36.0407 40.2308 36.1422C39.9871 36.2438 39.7659 36.3925 39.58 36.58L33 43.18L30.42 40.58C30.2335 40.3935 30.0121 40.2456 29.7685 40.1447C29.5249 40.0438 29.2637 39.9918 29 39.9918C28.7363 39.9918 28.4751 40.0438 28.2315 40.1447C27.9879 40.2456 27.7665 40.3935 27.58 40.58C27.3935 40.7665 27.2456 40.9879 27.1447 41.2315C27.0438 41.4751 26.9918 41.7363 26.9918 42C26.9918 42.2637 27.0438 42.5249 27.1447 42.7685C27.2456 43.0121 27.3935 43.2335 27.58 43.42L31.58 47.42C31.7659 47.6075 31.9871 47.7562 32.2308 47.8578C32.4746 47.9593 32.736 48.0116 33 48.0116C33.264 48.0116 33.5254 47.9593 33.7692 47.8578C34.0129 47.7562 34.2341 47.6075 34.42 47.42L42.42 39.42C42.6075 39.2341 42.7562 39.0129 42.8578 38.7692C42.9593 38.5254 43.0116 38.264 43.0116 38C43.0116 37.736 42.9593 37.4746 42.8578 37.2308C42.7562 36.9871 42.6075 36.7659 42.42 36.58Z" fill="#1F1D14"/>
</svg>
